<?xml version="1.0" standalone="no"?>
<!DOCTYPE svg PUBLIC "-//W3C//DTD SVG 20010904//EN"
 "http://www.w3.org/TR/2001/REC-SVG-20010904/DTD/svg10.dtd">
<svg version="1.0" xmlns="http://www.w3.org/2000/svg"
 width="700.000000pt" height="700.000000pt" viewBox="0 0 700.000000 700.000000"
 preserveAspectRatio="xMidYMid meet">
<metadata>
Created by potrace 1.11, written by Peter Selinger 2001-2013
</metadata>
<g transform="translate(0.000000,700.000000) scale(0.100000,-0.100000)"
fill="#000000" stroke="none">
<path d="M2210 6724 c-170 -50 -446 -206 -529 -300 -185 -208 -243 -706 -145
-1242 13 -73 33 -215 44 -315 11 -100 31 -267 44 -372 46 -356 70 -735 82
-1265 11 -485 -22 -1299 -61 -1505 -43 -233 -56 -337 -62 -516 -5 -161 -4
-186 17 -275 74 -328 248 -446 655 -446 188 1 346 48 504 152 284 186 493 495
756 1115 146 344 179 418 215 471 l33 49 -38 -35 c-34 -32 -36 -32 -20 -7 l17
27 -56 0 c-31 0 -56 5 -56 10 0 6 -22 10 -50 10 -27 0 -50 5 -50 10 0 6 -13
10 -29 10 -17 0 -33 5 -36 10 -5 8 -11 8 -20 0 -9 -8 -15 -8 -20 0 -3 5 -15
10 -26 10 -14 0 -19 7 -19 25 0 18 -5 25 -20 25 -11 0 -20 5 -20 10 0 6 -10
10 -22 10 -13 0 -33 13 -47 30 -13 17 -30 30 -38 30 -21 0 -63 46 -63 70 0 11
-4 20 -10 20 -5 0 -30 21 -55 46 -32 34 -45 55 -45 75 0 16 -4 29 -10 29 -5 0
-10 9 -10 20 0 11 -4 20 -10 20 -5 0 -10 13 -10 28 0 21 16 43 63 90 l63 62
200 -183 c362 -333 429 -417 675 -829 198 -334 215 -361 298 -468 79 -103 282
-313 370 -383 57 -46 61 -51 43 -58 -27 -10 -53 -72 -54 -125 0 -116 160 -219
385 -247 104 -13 263 6 358 42 161 61 255 179 304 382 18 73 23 239 10 300 -5
24 -4 30 5 24 38 -23 100 -255 100 -372 0 -127 -37 -239 -97 -294 -44 -42
-196 -125 -290 -159 -137 -49 -212 -56 -335 -31 -149 30 -298 94 -333 144 -8
12 -15 16 -15 10 0 -40 116 -122 239 -170 227 -87 352 -100 510 -51 169 52
280 138 342 263 33 68 34 73 34 191 0 79 4 120 10 116 6 -3 4 1 -3 10 -7 8
-22 51 -33 94 -24 93 -77 206 -117 251 -15 17 -35 51 -42 75 -21 61 -87 128
-129 128 -42 0 -66 -13 -118 -63 -29 -28 -43 -50 -43 -67 0 -60 -149 -292
-203 -318 -16 -8 -31 -20 -34 -28 -6 -16 -33 -19 -33 -4 0 6 -13 10 -30 10
-16 0 -30 -4 -30 -10 0 -5 -9 -10 -20 -10 -11 0 -20 -4 -20 -10 0 -5 -16 -10
-35 -10 -31 0 -35 -3 -35 -25 0 -22 -4 -25 -38 -25 -21 0 -42 -4 -48 -9 -23
-23 -56 -13 -149 44 -124 77 -187 139 -308 305 l-97 135 60 3 c33 2 60 7 60
12 0 15 27 12 33 -2 4 -10 8 -9 16 2 10 13 12 13 22 0 8 -11 12 -12 16 -2 3 7
25 12 59 12 41 0 54 4 54 15 0 11 11 15 39 15 22 0 43 5 46 10 3 6 23 10 43
10 26 0 42 6 52 20 8 11 22 20 32 20 10 0 18 5 18 10 0 6 11 10 25 10 14 0 25
5 25 10 0 6 14 10 30 10 25 0 30 4 30 25 0 18 5 25 20 25 14 0 28 -19 54 -74
34 -75 102 -158 161 -199 16 -11 2 5 -32 37 -85 78 -130 172 -184 381 -151
596 -236 802 -417 1015 -31 36 -62 73 -70 82 -12 14 -11 33 7 140 24 145 48
320 96 708 92 735 131 891 238 946 16 9 64 19 106 23 70 7 83 5 166 -25 133
-47 211 -58 367 -51 175 8 276 35 448 122 222 112 509 393 634 621 15 27 19
38 9 24 -149 -201 -320 -349 -543 -469 -296 -158 -641 -219 -921 -163 -91 19
-236 71 -262 96 -23 21 -79 46 -88 40 -5 -3 -9 -2 -8 3 5 27 -3 43 -21 43 -13
0 -20 7 -20 20 0 11 -4 20 -10 20 -5 0 -10 9 -10 19 0 13 -8 21 -22 23 -15 2
-24 11 -26 26 -2 14 -10 22 -23 22 -16 0 -19 7 -19 40 0 33 -3 40 -20 40 -15
0 -20 7 -20 25 0 20 -5 25 -25 25 -21 0 -25 5 -25 30 0 23 -4 30 -20 30 -17 0
-20 7 -20 45 0 38 -3 45 -20 45 -18 0 -20 7 -20 60 0 53 -2 60 -20 60 -16 0
-20 7 -20 35 0 31 -3 35 -25 35 l-25 0 0 149 c0 106 -3 150 -12 153 -19 7 0
26 50 54 50 26 42 27 -20 0 -32 -14 -38 -14 -38 -2 0 18 35 43 115 84 124 63
290 100 394 87 87 -11 199 -50 281 -99 82 -49 119 -76 331 -247 173 -139 217
-169 317 -219 138 -68 298 -101 486 -99 178 1 197 14 31 21 -362 16 -573 132
-864 477 -182 215 -277 286 -423 311 -122 21 -308 -16 -477 -95 -205 -98 -337
-228 -437 -433 -26 -53 -67 -126 -90 -162 -90 -140 -193 -373 -245 -557 -49
-173 -50 -182 -59 -652 -5 -249 -11 -456 -14 -458 -11 -12 -91 179 -127 304
-59 204 -82 375 -109 788 -32 496 -58 693 -126 955 -91 350 -290 595 -569 701
-44 16 -101 39 -127 49 -135 57 -269 65 -408 24z m310 -55 c83 -13 172 -51
307 -130 242 -142 358 -328 422 -672 20 -104 21 -119 7 -132 -8 -8 -22 -15
-30 -15 -9 0 -16 -4 -16 -10 0 -15 -30 -12 -31 3 0 10 -2 10 -6 0 -2 -7 -20
-13 -38 -13 -18 0 -36 6 -39 13 -5 10 -7 10 -12 0 -3 -8 -24 -13 -50 -13 -28
0 -44 5 -45 13 0 10 -2 10 -6 0 -2 -7 -11 -13 -18 -13 -7 0 -16 6 -18 13 -4 9
-8 8 -17 -3 -9 -11 -13 -12 -17 -2 -2 6 -16 12 -29 12 -13 0 -24 5 -24 10 0 6
-22 10 -50 10 -27 0 -50 5 -50 10 0 6 -7 10 -15 10 -8 0 -30 9 -50 20 -20 11
-42 20 -50 20 -8 0 -15 7 -15 15 0 8 -9 15 -20 15 -11 0 -20 5 -20 10 0 6 -11
10 -25 10 -18 0 -25 5 -25 20 0 16 -7 20 -30 20 -30 0 -43 23 -17 33 6 3 -3 6
-20 6 -28 1 -33 5 -33 26 0 14 -5 25 -11 25 -15 0 -39 26 -39 43 0 8 -9 22
-20 32 -11 10 -20 31 -20 47 0 15 -4 28 -10 28 -5 0 -10 14 -10 30 0 17 -4 30
-10 30 -5 0 -10 9 -10 20 0 11 -4 20 -10 20 -5 0 -10 19 -10 41 0 28 -6 46
-17 55 -17 12 -17 13 -1 19 15 6 14 10 -10 31 -23 20 -25 25 -12 34 13 9 13
11 0 20 -13 9 -13 11 -1 19 12 8 12 12 2 24 -8 10 -9 17 -1 22 5 3 10 37 10
75 0 78 5 84 83 100 60 11 103 11 177 -1z m-595 -775 c210 -84 270 -112 290
-136 14 -16 22 -35 19 -40 -4 -6 -2 -8 4 -5 22 15 155 -160 221 -289 47 -94
37 -89 -19 9 -78 135 -190 284 -190 252 0 -3 16 -22 35 -42 41 -44 133 -193
171 -279 34 -75 78 -219 95 -309 16 -82 18 -376 5 -740 -7 -203 -6 -255 8
-340 47 -294 131 -490 329 -770 66 -93 138 -192 160 -218 22 -27 36 -52 31
-56 -5 -4 -47 -37 -94 -72 -47 -35 -121 -95 -165 -135 -48 -42 -86 -69 -95
-66 -21 7 -39 33 -40 58 0 11 -9 30 -20 42 -11 12 -20 33 -20 47 0 16 -6 25
-16 25 -20 0 -44 24 -44 45 0 16 -22 45 -35 45 -3 0 -28 23 -55 50 -27 28 -56
50 -64 50 -10 0 -16 9 -16 25 0 22 -4 25 -35 25 -28 0 -35 4 -35 20 0 12 -7
20 -16 20 -9 0 -29 14 -44 30 -15 17 -35 30 -44 30 -9 0 -19 7 -22 15 -4 8
-15 15 -25 15 -12 0 -19 7 -19 20 0 16 -7 20 -30 20 -16 0 -30 5 -30 10 0 6
-9 10 -21 10 -11 0 -23 8 -25 18 -5 17 -47 42 -71 42 -7 0 -13 7 -13 15 0 10
-11 15 -35 15 -19 0 -35 5 -35 10 0 6 -11 10 -25 10 l-25 0 0 183 c0 228 -4
257 -95 744 -127 674 -182 1042 -157 1051 17 5 15 22 -3 22 -12 0 -15 16 -16
83 -2 100 -5 149 -14 247 -6 62 -4 90 13 150 22 79 49 150 57 150 3 0 124 -48
270 -106z m706 -914 c8 11 12 12 16 3 2 -7 16 -13 29 -13 13 0 24 -6 25 -12 0
-10 2 -10 6 0 6 14 33 16 33 2 0 -5 25 -10 55 -10 37 0 55 -4 56 -12 0 -10 2
-10 6 0 2 6 11 12 18 12 7 0 16 -6 18 -12 4 -10 8 -9 17 2 9 11 13 12 17 3 6
-15 83 -18 83 -3 0 14 27 12 33 -2 4 -10 8 -9 16 2 10 13 12 13 21 0 9 -13 11
-13 20 0 9 13 11 13 21 0 8 -11 12 -12 16 -2 6 14 33 16 33 2 0 -14 37 -12 43
3 4 9 8 8 16 -3 10 -13 12 -13 21 0 9 13 11 13 21 0 8 -11 12 -12 16 -2 15 38
21 -11 26 -220 3 -156 10 -263 21 -323 19 -101 15 -135 -14 -135 -13 0 -20 -7
-20 -20 0 -15 -7 -20 -25 -20 -14 0 -25 -5 -25 -11 0 -16 -26 -39 -44 -39 -9
0 -16 -8 -16 -20 0 -11 -4 -20 -10 -20 -5 0 -10 -9 -10 -20 0 -15 -7 -20 -25
-20 -22 0 -25 -4 -25 -35 0 -28 -4 -35 -20 -35 -12 0 -20 -7 -20 -16 0 -9 -13
-29 -30 -44 -16 -15 -30 -33 -30 -38 0 -17 -43 -92 -53 -92 -16 0 -37 -28 -37
-49 0 -12 -4 -21 -10 -21 -5 0 -10 -9 -10 -20 0 -11 -4 -20 -10 -20 -5 0 -10
-9 -10 -20 0 -11 -4 -20 -10 -20 -5 0 -10 -11 -10 -23 0 -27 -27 -87 -39 -87
-4 0 -36 49 -70 109 -56 98 -65 122 -86 228 -38 186 -45 274 -55 648 -5 193
-11 370 -15 395 -5 34 -4 41 4 30 10 -13 12 -13 22 0z m2329 -180 c13 -8 13
-10 -2 -10 -9 0 -20 5 -23 10 -8 13 5 13 25 0z m-1200 -990 c0 -13 7 -20 20
-20 13 0 20 -7 20 -20 0 -13 7 -20 20 -20 15 0 20 -7 20 -25 0 -20 5 -25 25
-25 18 0 25 -5 25 -20 0 -13 7 -20 20 -20 13 0 20 -7 20 -20 0 -16 7 -20 37
-20 40 0 73 -23 73 -52 0 -11 7 -18 20 -18 13 0 20 -7 20 -20 0 -17 7 -20 45
-20 38 0 45 -3 45 -20 0 -12 7 -20 16 -20 9 0 18 -9 21 -20 3 -11 14 -20 24
-20 14 0 19 -7 19 -25 0 -23 4 -25 45 -25 38 0 45 -3 45 -20 0 -16 7 -20 30
-20 23 0 30 -4 30 -20 0 -16 7 -20 30 -20 l30 0 0 -161 0 -161 -137 130 c-287
270 -450 450 -562 619 -46 69 -53 103 -21 103 13 0 20 -7 20 -20z m-167 -77
c-7 -2 -19 -2 -25 0 -7 3 -2 5 12 5 14 0 19 -2 13 -5z m231 -245 c50 -55 213
-211 363 -346 159 -144 273 -254 273 -264 0 -11 5 -15 14 -12 16 6 107 -94
174 -189 24 -34 66 -107 94 -162 l50 -100 -28 -3 c-16 -2 -36 -12 -45 -23 -9
-10 -25 -19 -35 -19 -11 0 -26 -9 -34 -20 -10 -14 -26 -20 -51 -20 -24 0 -39
-5 -43 -15 -3 -8 -15 -15 -26 -15 -11 0 -20 -4 -20 -10 0 -5 -13 -10 -29 -10
-17 0 -33 -5 -36 -10 -5 -8 -11 -8 -20 0 -9 8 -15 8 -20 0 -8 -13 -255 -14
-255 0 0 6 -9 10 -19 10 -11 0 -23 5 -26 10 -3 6 -28 10 -56 10 -37 0 -49 4
-49 15 0 9 -9 15 -25 15 -14 0 -25 5 -25 10 0 6 -9 10 -20 10 -11 0 -20 5 -20
10 0 6 -9 10 -20 10 -11 0 -20 5 -20 10 0 6 -9 10 -20 10 -11 0 -20 5 -20 10
0 6 -9 10 -20 10 -11 0 -20 4 -20 9 0 4 -11 21 -25 37 -14 16 -29 34 -33 39
-4 6 -37 47 -75 92 -37 45 -67 91 -67 103 0 11 -4 20 -10 20 -5 0 -10 16 -10
35 0 19 -4 35 -10 35 -5 0 -10 9 -10 20 0 11 -4 20 -10 20 -5 0 -10 13 -10 29
0 16 -6 31 -15 35 -8 3 -15 10 -15 16 0 5 7 10 15 10 8 0 15 5 15 10 0 6 -7
10 -15 10 -22 0 -22 208 0 216 14 6 13 8 -2 19 -17 13 -17 14 0 20 9 4 17 16
17 26 0 10 5 19 10 19 6 0 10 11 10 25 0 14 5 25 10 25 6 0 10 9 10 20 0 11 5
20 10 20 14 0 12 37 -2 44 -10 5 -10 7 0 12 6 3 12 12 12 20 0 7 9 29 20 49
11 20 20 42 20 50 0 9 10 15 25 15 18 0 25 5 25 20 0 11 5 20 10 20 6 0 10 6
10 14 0 13 15 25 30 24 3 0 45 -45 94 -100z m-1984 -943 c0 -8 5 -15 10 -15
19 0 120 -109 120 -130 0 -15 7 -20 25 -20 21 0 25 -5 25 -30 0 -23 4 -30 20
-30 17 0 20 -7 20 -43 0 -31 5 -46 20 -57 14 -10 20 -26 20 -50 0 -24 6 -40
20 -50 23 -16 26 -36 8 -44 -10 -5 -10 -7 0 -12 7 -3 12 -26 12 -59 0 -33 5
-56 13 -59 10 -5 10 -7 0 -12 -9 -4 -13 -34 -13 -100 0 -56 -4 -94 -10 -94 -5
0 -10 -11 -10 -25 0 -14 -4 -25 -10 -25 -5 0 -10 -9 -10 -20 0 -11 -4 -20 -10
-20 -5 0 -10 -11 -10 -25 0 -13 -9 -41 -20 -60 l-21 -37 23 8 c13 3 43 15 68
24 l45 18 1 88 c0 49 6 100 12 114 9 21 11 14 13 -50 l2 -75 7 71 c5 44 18 91
35 127 26 53 166 248 228 316 l28 31 24 -24 c14 -14 25 -29 25 -35 0 -5 6 -12
13 -14 9 -4 9 -8 -2 -15 -11 -8 -4 -19 35 -56 27 -25 52 -46 57 -46 4 0 7 -7
7 -15 0 -8 9 -15 20 -15 12 0 20 -7 20 -16 0 -18 48 -64 67 -64 6 0 20 -11 31
-25 11 -14 26 -25 34 -25 7 0 20 -9 28 -20 8 -11 25 -20 37 -20 15 0 23 -6 23
-17 0 -17 40 -43 67 -43 7 0 13 -4 13 -10 0 -5 9 -10 20 -10 11 0 20 -7 20
-15 0 -9 9 -15 25 -15 14 0 25 -4 25 -10 0 -5 9 -10 20 -10 11 0 20 -4 20 -10
0 -5 9 -10 20 -10 11 0 20 -4 20 -10 0 -5 16 -10 35 -10 19 0 35 -3 35 -7 0
-12 51 -33 77 -33 38 0 28 -29 -50 -151 -195 -304 -307 -459 -332 -459 -8 0
-15 -4 -15 -10 0 -5 -7 -10 -15 -10 -8 0 -15 -4 -15 -10 0 -5 -12 -10 -28 -10
-17 0 -34 -9 -46 -25 -11 -14 -29 -25 -42 -25 -12 0 -26 -4 -29 -10 -3 -5 -14
-10 -23 -10 -10 0 -24 -9 -32 -20 -8 -11 -21 -20 -30 -20 -9 0 -22 -9 -30 -20
-8 -11 -23 -20 -33 -20 -20 0 -47 -22 -47 -39 0 -6 -7 -11 -16 -11 -10 0 -39
-22 -65 -50 -26 -27 -55 -50 -64 -50 -17 0 -45 -23 -45 -36 0 -3 -8 -14 -19
-23 -10 -9 -20 -25 -22 -36 -5 -26 -80 -38 -200 -33 -68 3 -97 10 -141 31
-159 78 -246 258 -283 587 -25 224 -20 391 20 702 36 281 85 683 85 706 0 6 9
12 20 12 11 0 20 -7 20 -15z m3755 -1041 c33 -36 48 -114 43 -220 -14 -276
-215 -515 -478 -570 -51 -11 -113 -15 -190 -12 -103 3 -121 6 -173 32 -63 31
-117 92 -117 133 0 13 7 39 14 58 20 48 44 46 159 -13 52 -27 114 -52 138 -55
57 -8 128 8 158 36 44 41 137 162 179 231 68 113 86 169 87 266 l1 85 44 27
c57 36 103 37 135 2z"/>
<path d="M5274 5669 c-216 -114 -461 -140 -648 -67 -27 10 -50 17 -51 16 -8
-8 169 -131 230 -160 60 -28 81 -33 145 -33 66 0 82 4 139 35 61 33 250 201
272 241 5 11 8 18 7 18 -2 -1 -44 -23 -94 -50z"/>
<path d="M5904 970 c3 -8 12 -39 22 -69 12 -42 15 -79 12 -156 -4 -87 -9 -111
-35 -166 -91 -194 -313 -292 -583 -260 -110 14 -153 31 -264 106 -84 59 -71
43 51 -55 127 -102 218 -136 438 -161 122 -14 188 -3 266 44 67 40 122 117
152 212 41 131 24 342 -39 470 -13 28 -22 43 -20 35z"/>
</g>
</svg>
